<mxfile host="app.diagrams.net" modified="2024-05-01T15:15:03.329Z" agent="Mozilla/5.0 (Windows NT 10.0; Win64; x64) AppleWebKit/537.36 (KHTML, like Gecko) Chrome/124.0.0.0 Safari/537.36" etag="p5knppw-989JWjLKsqe_" version="24.3.1" type="device">
  <diagram name="Страница — 1" id="5X1WnvhzbiA4pKIqT3eM">
    <mxGraphModel dx="2220" dy="998" grid="1" gridSize="10" guides="1" tooltips="1" connect="1" arrows="1" fold="1" page="1" pageScale="1" pageWidth="827" pageHeight="1169" math="0" shadow="0">
      <root>
        <mxCell id="0" />
        <mxCell id="1" parent="0" />
        <mxCell id="E64o1SQ4OG3UULAt4432-1" value="Отправка заявки на покупку ключа" style="rounded=0;whiteSpace=wrap;html=1;" vertex="1" parent="1">
          <mxGeometry x="210" y="490" width="120" height="60" as="geometry" />
        </mxCell>
        <mxCell id="E64o1SQ4OG3UULAt4432-2" value="" style="endArrow=classic;html=1;rounded=0;entryX=0;entryY=0.25;entryDx=0;entryDy=0;" edge="1" parent="1">
          <mxGeometry width="50" height="50" relative="1" as="geometry">
            <mxPoint x="120" y="519.66" as="sourcePoint" />
            <mxPoint x="210" y="519.66" as="targetPoint" />
          </mxGeometry>
        </mxCell>
        <mxCell id="E64o1SQ4OG3UULAt4432-6" value="" style="endArrow=classic;html=1;rounded=0;entryX=0.5;entryY=0;entryDx=0;entryDy=0;" edge="1" parent="1">
          <mxGeometry width="50" height="50" relative="1" as="geometry">
            <mxPoint x="270" y="420" as="sourcePoint" />
            <mxPoint x="270" y="490" as="targetPoint" />
            <Array as="points" />
          </mxGeometry>
        </mxCell>
        <mxCell id="E64o1SQ4OG3UULAt4432-7" value="Данные о наличие ключа" style="text;html=1;align=center;verticalAlign=middle;whiteSpace=wrap;rounded=0;" vertex="1" parent="1">
          <mxGeometry x="225" y="390" width="90" height="30" as="geometry" />
        </mxCell>
        <mxCell id="E64o1SQ4OG3UULAt4432-8" style="edgeStyle=orthogonalEdgeStyle;rounded=0;orthogonalLoop=1;jettySize=auto;html=1;entryX=0;entryY=0.5;entryDx=0;entryDy=0;" edge="1" parent="1" source="E64o1SQ4OG3UULAt4432-10" target="E64o1SQ4OG3UULAt4432-11">
          <mxGeometry relative="1" as="geometry" />
        </mxCell>
        <mxCell id="E64o1SQ4OG3UULAt4432-9" value="Одобренная заявка" style="edgeLabel;html=1;align=center;verticalAlign=middle;resizable=0;points=[];" vertex="1" connectable="0" parent="E64o1SQ4OG3UULAt4432-8">
          <mxGeometry x="-0.045" y="-1" relative="1" as="geometry">
            <mxPoint as="offset" />
          </mxGeometry>
        </mxCell>
        <mxCell id="E64o1SQ4OG3UULAt4432-10" value="Обработка заявки" style="rounded=0;whiteSpace=wrap;html=1;" vertex="1" parent="1">
          <mxGeometry x="430" y="610" width="120" height="60" as="geometry" />
        </mxCell>
        <mxCell id="E64o1SQ4OG3UULAt4432-11" value="Оплата ключа" style="rounded=0;whiteSpace=wrap;html=1;" vertex="1" parent="1">
          <mxGeometry x="620" y="740" width="120" height="60" as="geometry" />
        </mxCell>
        <mxCell id="E64o1SQ4OG3UULAt4432-12" value="" style="endArrow=classic;html=1;rounded=0;exitX=1;exitY=0.5;exitDx=0;exitDy=0;entryX=0;entryY=0.5;entryDx=0;entryDy=0;" edge="1" parent="1" source="E64o1SQ4OG3UULAt4432-1" target="E64o1SQ4OG3UULAt4432-10">
          <mxGeometry width="50" height="50" relative="1" as="geometry">
            <mxPoint x="380" y="560" as="sourcePoint" />
            <mxPoint x="430" y="510" as="targetPoint" />
            <Array as="points">
              <mxPoint x="370" y="520" />
              <mxPoint x="370" y="620" />
              <mxPoint x="370" y="640" />
            </Array>
          </mxGeometry>
        </mxCell>
        <mxCell id="E64o1SQ4OG3UULAt4432-13" value="Созданная заявка" style="edgeLabel;html=1;align=center;verticalAlign=middle;resizable=0;points=[];" vertex="1" connectable="0" parent="E64o1SQ4OG3UULAt4432-12">
          <mxGeometry x="-0.1455" relative="1" as="geometry">
            <mxPoint as="offset" />
          </mxGeometry>
        </mxCell>
        <mxCell id="E64o1SQ4OG3UULAt4432-17" style="edgeStyle=orthogonalEdgeStyle;rounded=0;orthogonalLoop=1;jettySize=auto;html=1;entryX=0.5;entryY=1;entryDx=0;entryDy=0;" edge="1" parent="1" source="E64o1SQ4OG3UULAt4432-18" target="E64o1SQ4OG3UULAt4432-10">
          <mxGeometry relative="1" as="geometry" />
        </mxCell>
        <mxCell id="E64o1SQ4OG3UULAt4432-18" value="Продавец ключей" style="text;html=1;align=center;verticalAlign=middle;whiteSpace=wrap;rounded=0;" vertex="1" parent="1">
          <mxGeometry x="270" y="640" width="60" height="30" as="geometry" />
        </mxCell>
        <mxCell id="E64o1SQ4OG3UULAt4432-19" value="" style="endArrow=classic;html=1;rounded=0;entryX=0.5;entryY=0;entryDx=0;entryDy=0;" edge="1" parent="1" target="E64o1SQ4OG3UULAt4432-10">
          <mxGeometry width="50" height="50" relative="1" as="geometry">
            <mxPoint x="270" y="450" as="sourcePoint" />
            <mxPoint x="380" y="420" as="targetPoint" />
            <Array as="points">
              <mxPoint x="390" y="450" />
              <mxPoint x="440" y="450" />
              <mxPoint x="460" y="450" />
              <mxPoint x="490" y="450" />
              <mxPoint x="490" y="470" />
              <mxPoint x="490" y="490" />
              <mxPoint x="490" y="510" />
            </Array>
          </mxGeometry>
        </mxCell>
        <mxCell id="E64o1SQ4OG3UULAt4432-20" value="" style="endArrow=classic;html=1;rounded=0;exitX=1;exitY=0.5;exitDx=0;exitDy=0;" edge="1" parent="1" source="E64o1SQ4OG3UULAt4432-11">
          <mxGeometry width="50" height="50" relative="1" as="geometry">
            <mxPoint x="810" y="770" as="sourcePoint" />
            <mxPoint x="840" y="770" as="targetPoint" />
          </mxGeometry>
        </mxCell>
        <mxCell id="E64o1SQ4OG3UULAt4432-21" value="Ключ в личном кабинете клиента" style="text;html=1;align=center;verticalAlign=middle;whiteSpace=wrap;rounded=0;" vertex="1" parent="1">
          <mxGeometry x="850" y="755" width="110" height="30" as="geometry" />
        </mxCell>
        <mxCell id="E64o1SQ4OG3UULAt4432-22" value="" style="endArrow=classic;html=1;rounded=0;entryX=0.5;entryY=0;entryDx=0;entryDy=0;" edge="1" parent="1" target="E64o1SQ4OG3UULAt4432-11">
          <mxGeometry width="50" height="50" relative="1" as="geometry">
            <mxPoint x="680" y="620" as="sourcePoint" />
            <mxPoint x="720" y="620" as="targetPoint" />
          </mxGeometry>
        </mxCell>
        <mxCell id="E64o1SQ4OG3UULAt4432-23" value="Банковская система" style="text;html=1;align=center;verticalAlign=middle;whiteSpace=wrap;rounded=0;" vertex="1" parent="1">
          <mxGeometry x="650" y="590" width="60" height="30" as="geometry" />
        </mxCell>
        <mxCell id="E64o1SQ4OG3UULAt4432-24" value="Заказ клиента" style="text;html=1;align=center;verticalAlign=middle;whiteSpace=wrap;rounded=0;" vertex="1" parent="1">
          <mxGeometry x="60" y="505" width="60" height="30" as="geometry" />
        </mxCell>
        <mxCell id="E64o1SQ4OG3UULAt4432-25" value="" style="endArrow=classic;html=1;rounded=0;entryX=0.25;entryY=1;entryDx=0;entryDy=0;" edge="1" parent="1">
          <mxGeometry width="50" height="50" relative="1" as="geometry">
            <mxPoint x="225" y="630" as="sourcePoint" />
            <mxPoint x="225" y="550" as="targetPoint" />
          </mxGeometry>
        </mxCell>
        <mxCell id="E64o1SQ4OG3UULAt4432-26" value="" style="endArrow=classic;html=1;rounded=0;entryX=0.75;entryY=1;entryDx=0;entryDy=0;" edge="1" parent="1">
          <mxGeometry width="50" height="50" relative="1" as="geometry">
            <mxPoint x="299.85999999999996" y="630" as="sourcePoint" />
            <mxPoint x="299.85999999999996" y="550" as="targetPoint" />
          </mxGeometry>
        </mxCell>
        <mxCell id="E64o1SQ4OG3UULAt4432-27" value="Администратор сайта" style="text;html=1;align=center;verticalAlign=middle;whiteSpace=wrap;rounded=0;" vertex="1" parent="1">
          <mxGeometry x="190" y="640" width="60" height="30" as="geometry" />
        </mxCell>
      </root>
    </mxGraphModel>
  </diagram>
</mxfile>
